<?xml version="1.0" encoding="UTF-8"?>
<!DOCTYPE svg PUBLIC "-//W3C//DTD SVG 1.1//EN" "http://www.w3.org/Graphics/SVG/1.1/DTD/svg11.dtd">
<svg xmlns="http://www.w3.org/2000/svg" version="1.1" width="90px" height="90px" style="shape-rendering:geometricPrecision; text-rendering:geometricPrecision; image-rendering:optimizeQuality; fill-rule:evenodd; clip-rule:evenodd" xmlns:xlink="http://www.w3.org/1999/xlink">
<g><path style="opacity:0.671" fill="#0a0b0a" d="M 60.5,74.5 C 60.5,73.5 60.5,72.5 60.5,71.5C 61.0218,68.4318 61.8551,65.4318 63,62.5C 62.786,67.8969 64.1194,68.5635 67,64.5C 68.3633,58.8329 67.3633,57.8329 64,61.5C 63.7826,56.4473 63.2826,51.4473 62.5,46.5C 63.9781,43.7117 65.3114,40.8783 66.5,38C 61.4893,37.6117 56.4893,37.7784 51.5,38.5C 51.8333,37.8333 52.1667,37.1667 52.5,36.5C 52.8112,32.761 53.8112,29.261 55.5,26C 54.9322,22.5959 53.4322,19.7625 51,17.5C 50.5008,22.1548 50.3342,26.8215 50.5,31.5C 49.8333,31.5 49.5,31.1667 49.5,30.5C 48.172,26.1969 48.172,21.8636 49.5,17.5C 48.8632,15.6969 47.6965,14.3636 46,13.5C 45.8333,14 45.6667,14.5 45.5,15C 47.2559,18.6161 47.9225,22.4494 47.5,26.5C 47.1667,26.5 46.8333,26.5 46.5,26.5C 46.7746,21.7797 45.9412,21.4463 44,25.5C 43.6667,28.8333 43.3333,32.1667 43,35.5C 42.6667,33.1667 42.3333,30.8333 42,28.5C 40.9455,31.0559 39.1122,32.7225 36.5,33.5C 35.8106,32.2264 34.9772,32.2264 34,33.5C 32.6667,32.1667 31.3333,30.8333 30,29.5C 29.9977,32.0512 29.1644,34.0512 27.5,35.5C 26.6448,33.2132 26.4782,30.8799 27,28.5C 26.4115,26.1367 24.9115,25.1367 22.5,25.5C 23.3838,21.7707 24.2172,18.1041 25,14.5C 22.8976,16.7518 21.0643,19.0851 19.5,21.5C 17.2036,22.9367 16.0369,24.9367 16,27.5C 16.414,27.0426 16.914,26.7093 17.5,26.5C 18.9197,28.2202 20.253,30.0535 21.5,32C 22.4491,32.6172 23.2825,32.4506 24,31.5C 24.3135,35.6888 24.1468,39.6888 23.5,43.5C 24.6222,46.7357 26.1222,47.0691 28,44.5C 28.3988,44.7284 28.5654,45.0618 28.5,45.5C 27.2722,49.1838 27.2722,52.8505 28.5,56.5C 28.7678,58.099 28.4345,59.4324 27.5,60.5C 25.5468,56.3655 24.2135,56.5321 23.5,61C 23.6838,64.6097 25.3504,67.1097 28.5,68.5C 28.5,69.5 28.5,70.5 28.5,71.5C 25.1783,70.3418 23.0117,68.0084 22,64.5C 21.8214,61.4465 21.3214,58.4465 20.5,55.5C 18.1901,53.577 17.5234,51.2437 18.5,48.5C 15.1614,43.3274 12.4948,37.8274 10.5,32C 12.6778,25.8424 15.6778,20.1757 19.5,15C 23.6388,12.3609 27.6388,9.52761 31.5,6.5C 32.3081,6.80762 32.9747,7.30762 33.5,8C 32.7433,9.51221 31.7433,10.8455 30.5,12C 30.9574,12.414 31.2907,12.914 31.5,13.5C 29.8921,16.3821 28.5587,19.3821 27.5,22.5C 30.3992,30.7017 34.8992,32.035 41,26.5C 42.5574,23.828 43.724,20.9947 44.5,18C 43.0033,16.3379 41.3366,14.8379 39.5,13.5C 37.5,14.8333 35.8333,16.5 34.5,18.5C 34.1667,18 33.8333,17.5 33.5,17C 35.4609,11.6535 38.9609,8.82021 44,8.5C 48.6858,12.1885 53.0191,16.1885 57,20.5C 57.1397,23.0432 57.8063,25.3766 59,27.5C 61.6592,25.9398 62.8259,23.6065 62.5,20.5C 63.5,20.5 64.5,20.5 65.5,20.5C 65.4831,14.1369 62.4831,11.4702 56.5,12.5C 59.7521,10.1727 63.0854,7.83938 66.5,5.5C 71.3222,13.646 75.3222,22.146 78.5,31C 76.4147,35.8372 74.0814,40.5039 71.5,45C 75.6489,49.609 75.1489,53.7757 70,57.5C 70.7026,60.5071 70.3693,63.5071 69,66.5C 66.0647,69.0959 63.2314,71.7625 60.5,74.5 Z"/></g>
<g><path style="opacity:1" fill="#202020" d="M 19.5,21.5 C 20.3138,23.631 20.8138,25.9644 21,28.5C 21.2321,27.2625 21.7321,26.2625 22.5,25.5C 24.9115,25.1367 26.4115,26.1367 27,28.5C 26.4782,30.8799 26.6448,33.2132 27.5,35.5C 26.9033,35.7352 26.5699,36.2352 26.5,37C 27.5,39.3333 28.5,41.6667 29.5,44C 29.4301,44.7648 29.0967,45.2648 28.5,45.5C 28.5654,45.0618 28.3988,44.7284 28,44.5C 26.1222,47.0691 24.6222,46.7357 23.5,43.5C 24.1468,39.6888 24.3135,35.6888 24,31.5C 23.2825,32.4506 22.4491,32.6172 21.5,32C 20.253,30.0535 18.9197,28.2202 17.5,26.5C 16.914,26.7093 16.414,27.0426 16,27.5C 16.0369,24.9367 17.2036,22.9367 19.5,21.5 Z"/></g>
<g><path style="opacity:1" fill="#585958" d="M 22.5,25.5 C 21.7321,26.2625 21.2321,27.2625 21,28.5C 20.8138,25.9644 20.3138,23.631 19.5,21.5C 21.0643,19.0851 22.8976,16.7518 25,14.5C 24.2172,18.1041 23.3838,21.7707 22.5,25.5 Z"/></g>
<g><path style="opacity:1" fill="#757675" d="M 67.5,14.5 C 70.1565,18.276 72.1565,22.4426 73.5,27C 73.3333,27.8333 73.1667,28.6667 73,29.5C 72.3333,30.8333 71.6667,30.8333 71,29.5C 70.5814,30.6721 69.9147,31.6721 69,32.5C 68.0669,26.7537 67.5669,20.7537 67.5,14.5 Z"/></g>
<g><path style="opacity:1" fill="#5e5f5e" d="M 52.5,36.5 C 51.0687,35.2196 50.4021,33.5529 50.5,31.5C 50.3342,26.8215 50.5008,22.1548 51,17.5C 53.4322,19.7625 54.9322,22.5959 55.5,26C 53.8112,29.261 52.8112,32.761 52.5,36.5 Z"/></g>
<g><path style="opacity:1" fill="#5c5b5c" d="M 49.5,30.5 C 48.71,31.6085 48.21,32.9419 48,34.5C 47.6667,34.1667 47.3333,33.8333 47,33.5C 46.9822,31.2028 47.1489,28.8695 47.5,26.5C 47.9225,22.4494 47.2559,18.6161 45.5,15C 45.6667,14.5 45.8333,14 46,13.5C 47.6965,14.3636 48.8632,15.6969 49.5,17.5C 48.172,21.8636 48.172,26.1969 49.5,30.5 Z"/></g>
<g><path style="opacity:1" fill="#4a494a" d="M 62.5,27.5 C 63.3058,28.9972 63.9724,30.6639 64.5,32.5C 64.1543,33.6956 63.6543,33.6956 63,32.5C 62.6411,35.5443 61.9745,35.8776 61,33.5C 60.8508,36.2785 60.0174,36.7785 58.5,35C 59.7469,32.4017 61.0802,29.9017 62.5,27.5 Z"/></g>
<g><path style="opacity:1" fill="#525052" d="M 46.5,26.5 C 45.8042,30.4517 45.3042,34.4517 45,38.5C 44.6758,36.4311 43.8425,36.0977 42.5,37.5C 40.4346,36.1433 38.4346,34.81 36.5,33.5C 39.1122,32.7225 40.9455,31.0559 42,28.5C 42.3333,30.8333 42.6667,33.1667 43,35.5C 43.3333,32.1667 43.6667,28.8333 44,25.5C 45.9412,21.4463 46.7746,21.7797 46.5,26.5 Z"/></g>
<g><path style="opacity:1" fill="#1e1f1e" d="M 46.5,26.5 C 46.8333,26.5 47.1667,26.5 47.5,26.5C 47.1489,28.8695 46.9822,31.2028 47,33.5C 47.3333,33.8333 47.6667,34.1667 48,34.5C 48.21,32.9419 48.71,31.6085 49.5,30.5C 49.5,31.1667 49.8333,31.5 50.5,31.5C 50.4021,33.5529 51.0687,35.2196 52.5,36.5C 52.1667,37.1667 51.8333,37.8333 51.5,38.5C 49.8632,39.3796 48.0299,40.0463 46,40.5C 39.9092,38.2704 33.7426,36.6037 27.5,35.5C 29.1644,34.0512 29.9977,32.0512 30,29.5C 31.3333,30.8333 32.6667,32.1667 34,33.5C 34.9772,32.2264 35.8106,32.2264 36.5,33.5C 38.4346,34.81 40.4346,36.1433 42.5,37.5C 43.8425,36.0977 44.6758,36.4311 45,38.5C 45.3042,34.4517 45.8042,30.4517 46.5,26.5 Z"/></g>
<g><path style="opacity:1" fill="#f5f5f5" d="M 27.5,35.5 C 33.7426,36.6037 39.9092,38.2704 46,40.5C 48.0299,40.0463 49.8632,39.3796 51.5,38.5C 56.4893,37.7784 61.4893,37.6117 66.5,38C 65.3114,40.8783 63.9781,43.7117 62.5,46.5C 63.2826,51.4473 63.7826,56.4473 64,61.5C 67.3633,57.8329 68.3633,58.8329 67,64.5C 64.1194,68.5635 62.786,67.8969 63,62.5C 61.8551,65.4318 61.0218,68.4318 60.5,71.5C 57.8337,76.681 54.1671,81.181 49.5,85C 42.4236,83.2991 36.9236,79.1324 33,72.5C 30.5362,67.2955 29.0362,61.9621 28.5,56.5C 27.2722,52.8505 27.2722,49.1838 28.5,45.5C 29.0967,45.2648 29.4301,44.7648 29.5,44C 28.5,41.6667 27.5,39.3333 26.5,37C 26.5699,36.2352 26.9033,35.7352 27.5,35.5 Z"/></g>
<g><path style="opacity:1" fill="#494849" d="M 68.5,46.5 C 70.3442,47.2039 70.8442,48.5372 70,50.5C 68.4263,51.9842 67.093,53.6508 66,55.5C 66.0464,53.6874 65.8797,52.0207 65.5,50.5C 66.5244,49.1482 67.5244,47.8149 68.5,46.5 Z"/></g>
<g><path style="opacity:1" fill="#1f1e1f" d="M 44.5,58.5 C 42.6824,64.9179 41.0157,64.9179 39.5,58.5C 37.8333,58.5 36.1667,58.5 34.5,58.5C 34.1961,57.8501 33.8627,57.1835 33.5,56.5C 37.0345,55.9779 40.3679,54.9779 43.5,53.5C 44.4519,55.0453 44.7852,56.712 44.5,58.5 Z"/></g>
<g><path style="opacity:1" fill="#8c8b8c" d="M 53.5,55.5 C 55.9479,54.5269 58.6146,54.1936 61.5,54.5C 60.82,57.0621 60.6533,59.7287 61,62.5C 59.8714,65.5487 58.0381,66.882 55.5,66.5C 56.1157,65.7978 56.1157,64.7978 55.5,63.5C 56.1495,61.5648 56.4828,59.5648 56.5,57.5C 57.552,57.6495 58.552,57.4828 59.5,57C 57.7505,55.6814 55.7505,55.1814 53.5,55.5 Z"/></g>
<g><path style="opacity:1" fill="#848384" d="M 34.5,58.5 C 36.1667,58.5 37.8333,58.5 39.5,58.5C 41.0157,64.9179 42.6824,64.9179 44.5,58.5C 45.762,63.4219 43.9287,66.0886 39,66.5C 34.6129,65.3887 33.1129,62.722 34.5,58.5 Z"/></g>
<g><path style="opacity:1" fill="#100f10" d="M 53.5,55.5 C 55.7505,55.1814 57.7505,55.6814 59.5,57C 58.552,57.4828 57.552,57.6495 56.5,57.5C 56.4828,59.5648 56.1495,61.5648 55.5,63.5C 54.5,63.5 53.5,63.5 52.5,63.5C 52.7845,61.5853 52.4511,59.9187 51.5,58.5C 51.2852,56.8212 51.9519,55.8212 53.5,55.5 Z"/></g>
<g><path style="opacity:1" fill="#dee0de" d="M 27.5,60.5 C 28.1632,62.8036 28.8298,65.1369 29.5,67.5C 29.3764,68.1067 29.0431,68.44 28.5,68.5C 25.3504,67.1097 23.6838,64.6097 23.5,61C 24.2135,56.5321 25.5468,56.3655 27.5,60.5 Z"/></g>
<g><path style="opacity:1" fill="#4a494a" d="M 51.5,58.5 C 52.4511,59.9187 52.7845,61.5853 52.5,63.5C 53.5,63.5 54.5,63.5 55.5,63.5C 56.1157,64.7978 56.1157,65.7978 55.5,66.5C 51.9049,65.1497 50.5715,62.483 51.5,58.5 Z"/></g>
<g><path style="opacity:1" fill="#3f3f3f" d="M 48.5,62.5 C 49.4972,62.4701 50.1639,62.9701 50.5,64C 49.9717,66.8623 49.3051,69.6956 48.5,72.5C 47.5,72.1667 46.8333,71.5 46.5,70.5C 46.8457,69.3044 47.3457,69.3044 48,70.5C 48.4974,67.854 48.6641,65.1873 48.5,62.5 Z"/></g>
<g><path style="opacity:0.74" fill="#1f1a1a" d="M 28.5,56.5 C 29.0362,61.9621 30.5362,67.2955 33,72.5C 36.9236,79.1324 42.4236,83.2991 49.5,85C 54.1671,81.181 57.8337,76.681 60.5,71.5C 60.5,72.5 60.5,73.5 60.5,74.5C 59.3192,77.0255 57.9858,79.5255 56.5,82C 58.3009,84.4426 59.9676,86.9426 61.5,89.5C 60.5,89.5 59.5,89.5 58.5,89.5C 55.7431,81.9889 54.4097,81.9889 54.5,89.5C 49.8333,89.5 45.1667,89.5 40.5,89.5C 40.7989,87.396 40.4656,85.396 39.5,83.5C 37.987,85.3546 36.6537,87.3546 35.5,89.5C 34.5,89.5 33.5,89.5 32.5,89.5C 34.0324,86.9426 35.6991,84.4426 37.5,82C 34.6352,78.3081 31.6352,74.8081 28.5,71.5C 28.5,70.5 28.5,69.5 28.5,68.5C 29.0431,68.44 29.3764,68.1067 29.5,67.5C 28.8298,65.1369 28.1632,62.8036 27.5,60.5C 28.4345,59.4324 28.7678,58.099 28.5,56.5 Z"/></g>
<g><path style="opacity:1" fill="#555655" d="M 48.5,73.5 C 49.552,73.3505 50.552,73.5172 51.5,74C 49.4245,75.6933 47.0911,76.36 44.5,76C 46.0664,75.3918 47.3998,74.5585 48.5,73.5 Z"/></g>
<g><path style="opacity:1" fill="#dcdbdc" d="M 40.5,89.5 C 38.8333,89.5 37.1667,89.5 35.5,89.5C 36.6537,87.3546 37.987,85.3546 39.5,83.5C 40.4656,85.396 40.7989,87.396 40.5,89.5 Z"/></g>
<g><path style="opacity:1" fill="#e5e5e5" d="M 58.5,89.5 C 57.1667,89.5 55.8333,89.5 54.5,89.5C 54.4097,81.9889 55.7431,81.9889 58.5,89.5 Z"/></g>
</svg>
